# xmcd
#
# Track frame offsets:
#	150
#	17436
#	34771
#	49764
#	63665
#	80423
#	96999
#	116363
#	133008
#	152088
#	170628
#	188689
#	209079
#	227446
#	243255
#	262220
#	281454
#	301343
#	324703
#	340857
#
# Disc length: 4726 seconds
#
# Revision: 0
# Processed by: cddbd v1.5.2PL0 Copyright (c) Steve Scherf et al.
# Submitted via: EasyCDDAExtractor 11.6.0.1
#
DISCID=1b127414
DTITLE=Various Artist - Multitubes Disco Cd4
DYEAR=2008
DGENRE=Disco
TTITLE0=Irene Cara - Fame
TTITLE1=Gloria Gaynor - I Am What I Am
TTITLE2=Ottawan - T'es Ok T'es In T'es Bath
TTITLE3=Rose Royce - Magic Touch
TTITLE4=Donna Summer - La Vie En Rose
TTITLE5=Traks - Long Train Running
TTITLE6=The Salsoul Orchestra - Getaway
TTITLE7=First Choice - Let's No Man Put Asunder
TTITLE8=Gary's Gang - Keep On Dancing
TTITLE9=The Real Thing - Can You Feel The Force
TTITLE10=Dimitri From Paris - Not Quite Disco
TTITLE11=Al Green - I Feel Good
TTITLE12=Teddy Pendergrass - You Can't Hide From Yourself
TTITLE13=B.T. Express - Give Up The Funk (Let's Dance)
TTITLE14=The O'jays - Take Me To The Stars
TTITLE15=Revanche - You Get High In Nyc (Single Edit)
TTITLE16=Phreek - Week-End
TTITLE17=Gibson Brothers - Latin America
TTITLE18=Average White Band - Let's Go Round Again
TTITLE19=Carte Blanche - Get Up On Your Feet
EXTD=
EXTT0=
EXTT1=
EXTT2=
EXTT3=
EXTT4=
EXTT5=
EXTT6=
EXTT7=
EXTT8=
EXTT9=
EXTT10=
EXTT11=
EXTT12=
EXTT13=
EXTT14=
EXTT15=
EXTT16=
EXTT17=
EXTT18=
EXTT19=
PLAYORDER=
